HIERARCHY
ROOT hip
{
  OFFSET 0 90.174 2.4664
  CHANNELS 6 Xposition Yposition Zposition Zrotation Xrotation Yrotation
  JOINT abdomen
  {
    OFFSET 0 -1.186 -1.5018
    CHANNELS 6 Xposition Yposition Zposition Zrotation Xrotation Yrotation
    JOINT abdomen2
    {
      OFFSET 0 9.964 0.2134
      CHANNELS 6 Xposition Yposition Zposition Zrotation Xrotation Yrotation
      JOINT chest
      {
        OFFSET 0 13.134 -3.2573
        CHANNELS 6 Xposition Yposition Zposition Zrotation Xrotation Yrotation
        JOINT neck
        {
          OFFSET 0 20.686 -1.6905
          CHANNELS 6 Xposition Yposition Zposition Zrotation Xrotation Yrotation
          JOINT head
          {
            OFFSET 0 7.238 -0.1237
            CHANNELS 6 Xposition Yposition Zposition Zrotation Xrotation Yrotation
            End Site
            {
              OFFSET 0 0 0
            }
          }
        }
        JOINT lCollar
        {
          OFFSET 1.7069 20.075 5.0056
          CHANNELS 6 Xposition Yposition Zposition Zrotation Xrotation Yrotation
          JOINT lShldr
          {
            OFFSET 13.6458 -0.047 -4.849
            CHANNELS 6 Xposition Yposition Zposition Zrotation Xrotation Yrotation
            JOINT lForeArm
            {
              OFFSET 28.3255 -0.9759 2.2888
              CHANNELS 6 Xposition Yposition Zposition Zrotation Xrotation Yrotation
              JOINT lHand
              {
                OFFSET 22.1583 -0.53 10.8316
                CHANNELS 6 Xposition Yposition Zposition Zrotation Xrotation Yrotation
                JOINT lThumb1
                {
                  OFFSET 0.786 0.112 2.5817
                  CHANNELS 6 Xposition Yposition Zposition Zrotation Xrotation Yrotation
                  JOINT lThumb2
                  {
                    OFFSET 0.3601 -0.878 4.2331
                    CHANNELS 6 Xposition Yposition Zposition Zrotation Xrotation Yrotation
                    JOINT lThumb2_End
                    {
                      OFFSET 1.8127 -1.216 2.2227
                      CHANNELS 6 Xposition Yposition Zposition Zrotation Xrotation Yrotation
                      End Site
                      {
                        OFFSET 0.0181 -0.0122 0.0222
                      }
                    }
                  }
                }
                JOINT lCarpal1
                {
                  OFFSET 0.9571 1.114 1.7695
                  CHANNELS 6 Xposition Yposition Zposition Zrotation Xrotation Yrotation
                  JOINT lIndex1
                  {
                    OFFSET 4.1246 0.487 4.1451
                    CHANNELS 6 Xposition Yposition Zposition Zrotation Xrotation Yrotation
                    JOINT lIndex2
                    {
                      OFFSET 3.4052 -1.454 2.7682
                      CHANNELS 6 Xposition Yposition Zposition Zrotation Xrotation Yrotation
                      JOINT lIndex2_End
                      {
                        OFFSET 1.4531 -1.795 1.2713
                        CHANNELS 6 Xposition Yposition Zposition Zrotation Xrotation Yrotation
                        End Site
                        {
                          OFFSET 0.0145 -0.0179 0.0127
                        }
                      }
                    }
                  }
                  JOINT lMid1
                  {
                    OFFSET 5.6954 0.21 2.1184
                    CHANNELS 6 Xposition Yposition Zposition Zrotation Xrotation Yrotation
                    JOINT lMid2
                    {
                      OFFSET 3.9766 -1.54 2.3863
                      CHANNELS 6 Xposition Yposition Zposition Zrotation Xrotation Yrotation
                      JOINT lMid2_End
                      {
                        OFFSET 1.4042 -1.926 1.125
                        CHANNELS 6 Xposition Yposition Zposition Zrotation Xrotation Yrotation
                        End Site
                        {
                          OFFSET 0.014 -0.0193 0.0113
                        }
                      }
                    }
                  }
                }
                JOINT lCarpal2
                {
                  OFFSET 2.0956 0.66 -0.3894
                  CHANNELS 6 Xposition Yposition Zposition Zrotation Xrotation Yrotation
                  JOINT lRing1
                  {
                    OFFSET 5.0395 -0.09 2.4971
                    CHANNELS 6 Xposition Yposition Zposition Zrotation Xrotation Yrotation
                    JOINT lRing2
                    {
                      OFFSET 3.7921 -1.552 1.4806
                      CHANNELS 6 Xposition Yposition Zposition Zrotation Xrotation Yrotation
                      JOINT lRing2_End
                      {
                        OFFSET 1.4655 -1.808 0.9609
                        CHANNELS 6 Xposition Yposition Zposition Zrotation Xrotation Yrotation
                        End Site
                        {
                          OFFSET 0.0147 -0.0181 0.0096
                        }
                      }
                    }
                  }
                  JOINT lPinky1
                  {
                    OFFSET 4.9141 -1.269 0.3591
                    CHANNELS 6 Xposition Yposition Zposition Zrotation Xrotation Yrotation
                    JOINT lPinky2
                    {
                      OFFSET 3.1477 -1.685 0.8462
                      CHANNELS 6 Xposition Yposition Zposition Zrotation Xrotation Yrotation
                      JOINT lPinky2_End
                      {
                        OFFSET 0.8055 -1.585 0.7955
                        CHANNELS 6 Xposition Yposition Zposition Zrotation Xrotation Yrotation
                        End Site
                        {
                          OFFSET 0.0081 -0.0158 0.008
                        }
                      }
                    }
                  }
                }
              }
            }
          }
        }
        JOINT rCollar
        {
          OFFSET -1.7069 20.075 5.0056
          CHANNELS 6 Xposition Yposition Zposition Zrotation Xrotation Yrotation
          JOINT rShldr
          {
            OFFSET -13.6458 -0.047 -4.849
            CHANNELS 6 Xposition Yposition Zposition Zrotation Xrotation Yrotation
            JOINT rForeArm
            {
              OFFSET -28.3255 -0.9759 2.2888
              CHANNELS 6 Xposition Yposition Zposition Zrotation Xrotation Yrotation
              JOINT rHand
              {
                OFFSET -22.1583 -0.53 10.8316
                CHANNELS 6 Xposition Yposition Zposition Zrotation Xrotation Yrotation
                JOINT rThumb1
                {
                  OFFSET -0.786 0.112 2.5817
                  CHANNELS 6 Xposition Yposition Zposition Zrotation Xrotation Yrotation
                  JOINT rThumb2
                  {
                    OFFSET -0.3601 -0.878 4.2331
                    CHANNELS 6 Xposition Yposition Zposition Zrotation Xrotation Yrotation
                    JOINT rThumb2_End
                    {
                      OFFSET -1.8127 -1.216 2.2227
                      CHANNELS 6 Xposition Yposition Zposition Zrotation Xrotation Yrotation
                      End Site
                      {
                        OFFSET -0.0181 -0.0122 0.0222
                      }
                    }
                  }
                }
                JOINT rCarpal1
                {
                  OFFSET -0.9571 1.114 1.7695
                  CHANNELS 6 Xposition Yposition Zposition Zrotation Xrotation Yrotation
                  JOINT rIndex1
                  {
                    OFFSET -4.1246 0.487 4.1451
                    CHANNELS 6 Xposition Yposition Zposition Zrotation Xrotation Yrotation
                    JOINT rIndex2
                    {
                      OFFSET -3.4052 -1.454 2.7682
                      CHANNELS 6 Xposition Yposition Zposition Zrotation Xrotation Yrotation
                      JOINT rIndex2_End
                      {
                        OFFSET -1.4531 -1.795 1.2713
                        CHANNELS 6 Xposition Yposition Zposition Zrotation Xrotation Yrotation
                        End Site
                        {
                          OFFSET -0.0145 -0.018 0.0127
                        }
                      }
                    }
                  }
                  JOINT rMid1
                  {
                    OFFSET -5.6954 0.21 2.1184
                    CHANNELS 6 Xposition Yposition Zposition Zrotation Xrotation Yrotation
                    JOINT rMid2
                    {
                      OFFSET -3.9766 -1.54 2.3863
                      CHANNELS 6 Xposition Yposition Zposition Zrotation Xrotation Yrotation
                      JOINT rMid2_End
                      {
                        OFFSET -1.4042 -1.926 1.125
                        CHANNELS 6 Xposition Yposition Zposition Zrotation Xrotation Yrotation
                        End Site
                        {
                          OFFSET -0.014 -0.0193 0.0113
                        }
                      }
                    }
                  }
                }
                JOINT rCarpal2
                {
                  OFFSET -2.0956 0.66 -0.3894
                  CHANNELS 6 Xposition Yposition Zposition Zrotation Xrotation Yrotation
                  JOINT rRing1
                  {
                    OFFSET -5.0395 -0.09 2.4971
                    CHANNELS 6 Xposition Yposition Zposition Zrotation Xrotation Yrotation
                    JOINT rRing2
                    {
                      OFFSET -3.7921 -1.552 1.4806
                      CHANNELS 6 Xposition Yposition Zposition Zrotation Xrotation Yrotation
                      JOINT rRing2_End
                      {
                        OFFSET -1.4655 -1.808 0.9609
                        CHANNELS 6 Xposition Yposition Zposition Zrotation Xrotation Yrotation
                        End Site
                        {
                          OFFSET -0.0147 -0.0181 0.0096
                        }
                      }
                    }
                  }
                  JOINT rPinky1
                  {
                    OFFSET -4.9141 -1.269 0.3592
                    CHANNELS 6 Xposition Yposition Zposition Zrotation Xrotation Yrotation
                    JOINT rPinky2
                    {
                      OFFSET -3.1477 -1.685 0.8462
                      CHANNELS 6 Xposition Yposition Zposition Zrotation Xrotation Yrotation
                      JOINT rPinky2_End
                      {
                        OFFSET -0.8055 -1.585 0.7955
                        CHANNELS 6 Xposition Yposition Zposition Zrotation Xrotation Yrotation
                        End Site
                        {
                          OFFSET -0.0081 -0.0158 0.008
                        }
                      }
                    }
                  }
                }
              }
            }
          }
        }
      }
    }
  }
  JOINT lThigh
  {
    OFFSET 8.367 -8.2066 0.5982
    CHANNELS 6 Xposition Yposition Zposition Zrotation Xrotation Yrotation
    JOINT lShin
    {
      OFFSET 2.1923 -43.463 -0.4932
      CHANNELS 6 Xposition Yposition Zposition Zrotation Xrotation Yrotation
      JOINT lFoot
      {
        OFFSET 0.7333 -45.8593 -2.6451
        CHANNELS 6 Xposition Yposition Zposition Zrotation Xrotation Yrotation
        End Site
        {
          OFFSET 2.6618 -4.2699 12.3931
        }
      }
    }
  }
  JOINT rThigh
  {
    OFFSET -8.367 -8.2066 0.5982
    CHANNELS 6 Xposition Yposition Zposition Zrotation Xrotation Yrotation
    JOINT rShin
    {
      OFFSET -2.1923 -43.463 -0.4931
      CHANNELS 6 Xposition Yposition Zposition Zrotation Xrotation Yrotation
      JOINT rFoot
      {
        OFFSET -0.7333 -45.8593 -2.6451
        CHANNELS 6 Xposition Yposition Zposition Zrotation Xrotation Yrotation
        End Site
        {
          OFFSET -2.6618 -4.2699 12.3931
        }
      }
    }
  }
}
MOTION
Frames:	4
Frame Time:	0.0333333
0 90.174 2.4664 0 0 -0 0 -1.186 -1.5018 0 0 -0 0 9.964 0.2134 0 0 -0 0 13.134 -3.2573 0 0 -0 0 20.686 -1.6905 0 0 -0 0 7.238 -0.1237 0 0 -0 1.7069 20.075 5.0056 0 0 -0 13.6458 -0.047 -4.849 1.66051 0.0835086 5.75766 28.3255 -0.9759 2.2888 -0.0175111 0.895433 15.7816 22.1583 -0.53 10.8316 7.95139e-016 -1.98785e-016 -0 0.786 0.112 2.5817 5.46658e-016 -3.97569e-016 -0 0.3601 -0.878 4.2331 5.96354e-016 0 -0 1.8127 -1.216 2.2227 3.97569e-016 1.98785e-016 9.54166e-015 0.9571 1.114 1.7695 1.49089e-016 -3.97569e-016 -0 4.1246 0.487 4.1451 6.4605e-016 0 3.18055e-015 3.4052 -1.454 2.7682 5.96354e-016 0 3.18055e-015 1.4531 -1.795 1.2713 8.94531e-016 -1.98785e-016 6.36111e-015 5.6954 0.21 2.1184 6.4605e-016 0 3.18055e-015 3.9766 -1.54 2.3863 5.96354e-016 0 3.18055e-015 1.4042 -1.926 1.125 8.94531e-016 -1.98785e-016 6.36111e-015 2.0956 0.66 -0.3894 1.49089e-016 -3.97569e-016 -0 5.0395 -0.09 2.4971 6.4605e-016 0 3.18055e-015 3.7921 -1.552 1.4806 5.96354e-016 0 3.18055e-015 1.4655 -1.808 0.9609 8.94531e-016 -1.98785e-016 6.36111e-015 4.9141 -1.269 0.3591 6.4605e-016 0 3.18055e-015 3.1477 -1.685 0.8462 5.96354e-016 0 3.18055e-015 0.8055 -1.585 0.7955 8.94531e-016 -1.98785e-016 6.36111e-015 -1.7069 20.075 5.0056 0 0 -0 -13.6458 -0.047 -4.849 -1.4496 0.0636048 -5.0245 -28.3255 -0.9759 2.2888 -1.74811 1.20616 -16.8394 -22.1583 -0.53 10.8316 -1.19271e-015 1.98785e-016 -3.18055e-015 -0.786 0.112 2.5817 -3.97569e-016 1.98785e-016 -3.18055e-015 -0.3601 -0.878 4.2331 -2.98177e-016 1.98785e-016 -3.18055e-015 -1.8127 -1.216 2.2227 -2.98177e-016 3.97569e-016 -0 -0.9571 1.114 1.7695 4.96962e-016 0 -6.36111e-015 -4.1246 0.487 4.1451 -9.93923e-017 3.97569e-016 -0 -3.4052 -1.454 2.7682 -8.94531e-016 5.96354e-016 -0 -1.4531 -1.795 1.2713 -3.97569e-016 3.97569e-016 -0 -5.6954 0.21 2.1184 -9.93923e-017 3.97569e-016 -0 -3.9766 -1.54 2.3863 -8.94531e-016 5.96354e-016 -0 -1.4042 -1.926 1.125 -3.97569e-016 3.97569e-016 -0 -2.0956 0.66 -0.3894 4.96962e-016 0 -6.36111e-015 -5.0395 -0.09 2.4971 -9.93923e-017 3.97569e-016 -0 -3.7921 -1.552 1.4806 -8.94531e-016 5.96354e-016 -0 -1.4655 -1.808 0.9609 -3.97569e-016 3.97569e-016 -0 -4.9141 -1.269 0.3592 -9.93923e-017 3.97569e-016 -0 -3.1477 -1.685 0.8462 -8.94531e-016 5.96354e-016 -0 -0.8055 -1.585 0.7955 -3.97569e-016 3.97569e-016 -0 8.367 -8.2066 0.5982 -4.66115 -1.03232 0.120763 2.1923 -43.463 -0.4932 0.00990601 1.55097 0.177175 0.7333 -45.8593 -2.6451 4.65196 -0.54114 -0.255042 -8.367 -8.2066 0.5982 4.66115 -1.03222 -0.120763 -2.1923 -43.463 -0.4931 -0.00990459 1.5509 -0.177176 -0.7333 -45.8593 -2.6451 -4.65196 -0.541171 0.255041 
0.0323636 48.9018 -1.9224 -0 -14.6258 -0 0 -1.186 -1.5018 -0.792623 5.91266 -3.86055 -5.55112e-017 9.964 0.2134 -1.19033 11.8651 -7.70049 4.44089e-016 13.134 -3.2573 -1.19033 11.8651 -7.70049 1.77636e-015 20.686 -1.6905 -0.473986 -0.136503 0.00143051 -8.88178e-016 7.238 -0.1237 1.15499 -6.04832 -14.4715 1.7069 20.075 5.0056 3.27506e-006 -1.72329e-005 0.0403357 13.6458 -0.047 -4.849 3.61348 -11.6577 -22.0605 28.3255 -0.9759 2.2888 -0.0463774 -0.784332 -38.7662 22.1583 -0.53 10.8316 -0.0571959 -0.294636 -0.0511977 0.786 0.112 2.5817 3.97569e-016 -8.94531e-016 -1.59028e-015 0.3601 -0.878 4.2331 -2.3577e-008 -3.00851e-007 -6.3968e-009 1.8127 -1.216 2.2227 -3.97569e-016 3.67752e-015 -3.18055e-015 0.9571 1.114 1.7695 0 0 -1.59028e-015 4.1246 0.487 4.1451 -1.59028e-015 6.65929e-015 1.11319e-014 3.4052 -1.454 2.7682 -2.3577e-008 -3.00851e-007 -6.3968e-009 1.4531 -1.795 1.2713 -3.97569e-016 3.32964e-015 -1.59028e-015 5.6954 0.21 2.1184 -1.59028e-015 6.65929e-015 1.11319e-014 3.9766 -1.54 2.3863 -2.3577e-008 -3.00851e-007 -6.3968e-009 1.4042 -1.926 1.125 -3.97569e-016 3.32964e-015 -1.59028e-015 2.0956 0.66 -0.3894 0 0 -1.59028e-015 5.0395 -0.09 2.4971 -1.59028e-015 6.65929e-015 1.11319e-014 3.7921 -1.552 1.4806 -2.3577e-008 -3.00851e-007 -6.3968e-009 1.4655 -1.808 0.9609 -3.97569e-016 3.32964e-015 -1.59028e-015 4.9141 -1.269 0.3591 -1.59028e-015 6.65929e-015 1.11319e-014 3.1477 -1.685 0.8462 -2.3577e-008 -3.00851e-007 -6.3968e-009 0.8055 -1.585 0.7955 -3.97569e-016 3.32964e-015 -1.59028e-015 -1.7069 20.075 5.0056 3.07282e-006 -1.66321e-005 8.1456e-006 -13.6458 -0.047 -4.849 -8.09849 -25.0094 17.9571 -28.3255 -0.9759 2.2888 -1.74811 1.20616 -16.8394 -22.1583 -0.53 10.8316 -1.11924e-007 8.36158e-007 1.19496e-007 -0.786 0.112 2.5817 3.18055e-015 0 -6.36111e-015 -0.3601 -0.878 4.2331 5.76476e-015 7.95139e-016 -3.18055e-015 -1.8127 -1.216 2.2227 6.36111e-015 -2.38542e-015 -6.36111e-015 -0.9571 1.114 1.7695 3.57812e-015 7.95139e-016 -3.18055e-015 -4.1246 0.487 4.1451 6.55989e-015 7.95139e-016 6.36111e-015 -3.4052 -1.454 2.7682 -3.57812e-015 0 -6.36111e-015 -1.4531 -1.795 1.2713 -2.98177e-015 2.38542e-015 -6.36111e-015 -5.6954 0.21 2.1184 6.55989e-015 7.95139e-016 6.36111e-015 -3.9766 -1.54 2.3863 -3.57812e-015 0 -6.36111e-015 -1.4042 -1.926 1.125 -2.98177e-015 2.38542e-015 -6.36111e-015 -2.0956 0.66 -0.3894 3.57812e-015 7.95139e-016 -3.18055e-015 -5.0395 -0.09 2.4971 6.55989e-015 7.95139e-016 6.36111e-015 -3.7921 -1.552 1.4806 -3.57812e-015 0 -6.36111e-015 -1.4655 -1.808 0.9609 -2.98177e-015 2.38542e-015 -6.36111e-015 -4.9141 -1.269 0.3592 6.55989e-015 7.95139e-016 6.36111e-015 -3.1477 -1.685 0.8462 -3.57812e-015 0 -6.36111e-015 -0.8055 -1.585 0.7955 -2.98177e-015 2.38542e-015 -6.36111e-015 8.367 -8.2066 0.5982 -10.3866 -63.9829 -5.48855 2.1923 -43.463 -0.4932 0.44185 73.8893 1.74995 0.7333 -45.8593 -2.6451 4.79976 2.10405 1.12063 -8.367 -8.2066 0.5982 -4.09384 -65.1375 -14.0502 -2.1923 -43.463 -0.4931 -0.441012 73.4096 -1.72455 -0.7333 -45.8593 -2.6451 -4.78868 2.48669 -1.09859 
0.185173 15.226 -2.7592 -0 -26.0015 -0 0 -1.186 -1.5018 0.391992 9.78764 -7.28491 0 9.964 0.2134 2.10834 19.4416 -14.9709 -8.88178e-016 13.134 -3.2573 2.10834 19.4416 -14.9709 0 20.686 -1.6905 -0.946171 -0.271209 -0.00754855 0 7.238 -0.1237 -0.00400617 -10.0021 -26.0021 1.7069 20.075 5.0056 -4.06733e-007 -5.423e-007 0.0716884 13.6458 -0.047 -4.849 -1.80991 -15.4649 -45.0815 28.3255 -0.9759 2.2888 -1.05504 -1.64621 -81.2125 22.1583 -0.53 10.8316 -0.121076 -0.58168 -0.107225 0.786 0.112 2.5817 -3.97569e-016 0 -0 0.3601 -0.878 4.2331 3.97569e-016 0 6.36111e-015 1.8127 -1.216 2.2227 -1.98785e-015 0 6.36111e-015 0.9571 1.114 1.7695 -3.97569e-016 0 -3.18055e-015 4.1246 0.487 4.1451 1.59028e-015 0 9.54166e-015 3.4052 -1.454 2.7682 7.95139e-016 1.59028e-015 3.18055e-015 1.4531 -1.795 1.2713 -0 0 6.36111e-015 5.6954 0.21 2.1184 1.59028e-015 0 9.54166e-015 3.9766 -1.54 2.3863 7.95139e-016 1.59028e-015 3.18055e-015 1.4042 -1.926 1.125 -0 0 6.36111e-015 2.0956 0.66 -0.3894 -3.97569e-016 0 -3.18055e-015 5.0395 -0.09 2.4971 1.59028e-015 0 9.54166e-015 3.7921 -1.552 1.4806 7.95139e-016 1.59028e-015 3.18055e-015 1.4655 -1.808 0.9609 -0 0 6.36111e-015 4.9141 -1.269 0.3591 1.59028e-015 0 9.54166e-015 3.1477 -1.685 0.8462 7.95139e-016 1.59028e-015 3.18055e-015 0.8055 -1.585 0.7955 -0 0 6.36111e-015 -1.7069 20.075 5.0056 5.76487e-009 -2.16833e-006 -3.34252e-006 -13.6458 -0.047 -4.849 2.18902 -36.2381 43.1276 -28.3255 -0.9759 2.2888 -1.74811 1.20616 -16.8394 -22.1583 -0.53 10.8316 -3.97569e-016 0 -3.18055e-015 -0.786 0.112 2.5817 3.97569e-016 -1.59028e-015 -1.59028e-015 -0.3601 -0.878 4.2331 -1.32417e-031 -4.77083e-015 -1.59028e-015 -1.8127 -1.216 2.2227 1.98785e-016 -4.77083e-015 -1.59028e-015 -0.9571 1.114 1.7695 9.93923e-016 0 -3.18055e-015 -4.1246 0.487 4.1451 1.19271e-015 -3.18055e-015 1.59028e-015 -3.4052 -1.454 2.7682 -3.97569e-016 -1.59028e-015 -1.59028e-015 -1.4531 -1.795 1.2713 -9.93923e-016 -1.59028e-015 1.59028e-015 -5.6954 0.21 2.1184 1.19271e-015 -3.18055e-015 1.59028e-015 -3.9766 -1.54 2.3863 -3.97569e-016 -1.59028e-015 -1.59028e-015 -1.4042 -1.926 1.125 -9.93923e-016 -1.59028e-015 1.59028e-015 -2.0956 0.66 -0.3894 9.93923e-016 0 -3.18055e-015 -5.0395 -0.09 2.4971 1.19271e-015 -3.18055e-015 1.59028e-015 -3.7921 -1.552 1.4806 -3.97569e-016 -1.59028e-015 -1.59028e-015 -1.4655 -1.808 0.9609 -9.93923e-016 -1.59028e-015 1.59028e-015 -4.9141 -1.269 0.3592 1.19271e-015 -3.18055e-015 1.59028e-015 -3.1477 -1.685 0.8462 -3.97569e-016 -1.59028e-015 -1.59028e-015 -0.8055 -1.585 0.7955 -9.93923e-016 -1.59028e-015 1.59028e-015 8.367 -8.2066 0.5982 -171.631 -63.2798 -161.038 2.1923 -43.463 -0.4932 179.401 49.2725 -173.016 0.7333 -45.8593 -2.6451 5.39249 6.29333 3.84519 -8.367 -8.2066 0.5982 -154.888 -60.2653 -167.41 -2.1923 -43.463 -0.4931 -179.329 50.0268 173.065 -0.7333 -45.8593 -2.6451 -5.33546 6.75313 -3.76793 
0.194485 10.457 -2.64978 -0 -27.6266 -0 0 -1.186 -1.5018 0.694592 10.2686 -7.78735 -5.55112e-017 9.964 0.2134 2.89323 20.3403 -16.0949 2.22045e-016 13.134 -3.2573 2.89324 20.3403 -16.0949 8.88178e-016 20.686 -1.6905 -1.41214 -0.400313 -0.0470392 0 7.238 -0.1237 -0.24258 -10.478 -27.6654 1.7069 20.075 5.0056 4.70353e-007 2.1845e-006 0.0761732 13.6458 -0.047 -4.849 -2.87666 -15.4175 -48.3852 28.3255 -0.9759 2.2888 -1.24118 -1.70048 -87.2783 22.1583 -0.53 10.8316 -0.204085 -0.846232 -0.176352 0.786 0.112 2.5817 4.23407e-007 -3.09313e-008 -4.26213e-008 0.3601 -0.878 4.2331 4.23407e-007 -3.09313e-008 -4.26213e-008 1.8127 -1.216 2.2227 -9.93923e-016 3.18055e-015 -0 0.9571 1.114 1.7695 1.98785e-016 1.59028e-015 -0 4.1246 0.487 4.1451 4.23407e-007 -3.09313e-008 -4.26213e-008 3.4052 -1.454 2.7682 4.23407e-007 -3.09313e-008 -4.26213e-008 1.4531 -1.795 1.2713 5.96354e-016 3.18055e-015 1.59028e-015 5.6954 0.21 2.1184 4.23407e-007 -3.09313e-008 -4.26213e-008 3.9766 -1.54 2.3863 4.23407e-007 -3.09313e-008 -4.26213e-008 1.4042 -1.926 1.125 5.96354e-016 3.18055e-015 1.59028e-015 2.0956 0.66 -0.3894 1.98785e-016 1.59028e-015 -0 5.0395 -0.09 2.4971 4.23407e-007 -3.09313e-008 -4.26213e-008 3.7921 -1.552 1.4806 4.23407e-007 -3.09313e-008 -4.26213e-008 1.4655 -1.808 0.9609 5.96354e-016 3.18055e-015 1.59028e-015 4.9141 -1.269 0.3591 4.23407e-007 -3.09313e-008 -4.26213e-008 3.1477 -1.685 0.8462 4.23407e-007 -3.09313e-008 -4.26213e-008 0.8055 -1.585 0.7955 5.96354e-016 3.18055e-015 1.59028e-015 -1.7069 20.075 5.0056 -3.34357e-007 2.89604e-006 -3.41422e-006 -13.6458 -0.047 -4.849 4.57307 -36.7804 47.1646 -28.3255 -0.9759 2.2888 -1.74811 1.20616 -16.8394 -22.1583 -0.53 10.8316 -1.98785e-016 -1.59028e-015 -1.59028e-015 -0.786 0.112 2.5817 0 0 -1.59028e-015 -0.3601 -0.878 4.2331 0 0 -3.18055e-015 -1.8127 -1.216 2.2227 0 0 -3.18055e-015 -0.9571 1.114 1.7695 3.97569e-016 -1.59028e-015 -0 -4.1246 0.487 4.1451 -1.98785e-016 -3.18055e-015 6.36111e-015 -3.4052 -1.454 2.7682 -3.97569e-016 -1.59028e-015 -4.77083e-015 -1.4531 -1.795 1.2713 -3.97569e-016 -3.18055e-015 -1.59028e-015 -5.6954 0.21 2.1184 -1.98785e-016 -3.18055e-015 6.36111e-015 -3.9766 -1.54 2.3863 -3.97569e-016 -1.59028e-015 -4.77083e-015 -1.4042 -1.926 1.125 -3.97569e-016 -3.18055e-015 -1.59028e-015 -2.0956 0.66 -0.3894 3.97569e-016 -1.59028e-015 -0 -5.0395 -0.09 2.4971 -1.98785e-016 -3.18055e-015 6.36111e-015 -3.7921 -1.552 1.4806 -3.97569e-016 -1.59028e-015 -4.77083e-015 -1.4655 -1.808 0.9609 -3.97569e-016 -3.18055e-015 -1.59028e-015 -4.9141 -1.269 0.3592 -1.98785e-016 -3.18055e-015 6.36111e-015 -3.1477 -1.685 0.8462 -3.97569e-016 -1.59028e-015 -4.77083e-015 -0.8055 -1.585 0.7955 -3.97569e-016 -3.18055e-015 -1.59028e-015 8.367 -8.2066 0.5982 -174.297 -55.0485 -161.185 2.1923 -43.463 -0.4932 179.359 41.1188 -171.503 0.7333 -45.8593 -2.6451 5.65071 7.73089 4.79209 -8.367 -8.2066 0.5982 -158.158 -52.0869 -172.041 -2.1923 -43.463 -0.4931 -179.268 41.9198 171.59 -0.7333 -45.8593 -2.6451 -5.57252 8.14601 -4.69167 
